# xmcd
#
# Track frame offsets:
#	150
#	10913
#	19126
#	31741
#	46104
#	56874
#	68649
#	81377
#	94630
#	108723
#	121346
#
# Disc length: 1800 seconds
#
# Revision: 2
# Processed by: cddbd v1.5.2PL0 Copyright (c) Steve Scherf et al.
# Submitted via: audiograbber 1.83.01
#
DISCID=8807060b
DTITLE=The Statler Brothers - The Best Of
DYEAR=1975
DGENRE=Country
TTITLE0=Bed Of Roses
TTITLE1=Whatever Happened To Randolph Scott
TTITLE2=Do You Remember These
TTITLE3=Carry Me Back
TTITLE4=Flowers On The Wall
TTITLE5=The Class Of 57
TTITLE6=I'll Go To My Grave Loving You
TTITLE7=Pictures
TTITLE8=Thank You World
TTITLE9=New York City
TTITLE10=Susan When She Tried
EXTD=
EXTT0=
EXTT1=
EXTT2=
EXTT3=
EXTT4=
EXTT5=
EXTT6=
EXTT7=
EXTT8=
EXTT9=
EXTT10=
PLAYORDER=
